<svg width="14.000000" height="25.000000" viewBox="0 0 14 25" fill="none" xmlns="http://www.w3.org/2000/svg" xmlns:xlink="http://www.w3.org/1999/xlink">
	<desc>
			Created with Pixso.
	</desc>
	<defs/>
	<path d="M8.64758 25L4.69751 25C4.03772 25 3.50104 24.456 3.50104 23.7873L3.50104 14.7572L1.19647 14.7572C0.536682 14.7572 0 14.213 0 13.5445L0 9.67503C0 9.00631 0.536682 8.46233 1.19647 8.46233L3.50104 8.46233L3.50104 6.52466C3.50104 4.60339 4.09625 2.96879 5.22217 1.79787C6.35321 0.621605 7.93378 0 9.79309 0L12.8056 0.00495911C13.4642 0.00610352 14 0.550079 14 1.21765L14 4.81033C14 5.47905 13.4635 6.02303 12.8039 6.02303L10.7756 6.02379C10.157 6.02379 9.99951 6.14948 9.96582 6.18801C9.91034 6.25191 9.84424 6.43253 9.84424 6.9313L9.84424 8.46214L12.6514 8.46214C12.8628 8.46214 13.0675 8.51498 13.2435 8.61454C13.623 8.8295 13.8591 9.23595 13.8591 9.67522L13.8575 13.5447C13.8575 14.213 13.3209 14.757 12.6611 14.757L9.84424 14.757L9.84424 23.7873C9.84424 24.456 9.30737 25 8.64758 25ZM4.94708 23.5344L8.39807 23.5344L8.39807 14.101C8.39807 13.6545 8.75653 13.2914 9.1969 13.2914L12.4115 13.2914L12.4128 9.92794L9.19672 9.92794C8.75635 9.92794 8.39807 9.56478 8.39807 9.11827L8.39807 6.9313C8.39807 6.35872 8.45544 5.70755 8.8819 5.21812C9.39716 4.62646 10.2092 4.55818 10.7752 4.55818L12.554 4.55742L12.554 1.47018L9.79193 1.46561C6.80389 1.46561 4.94708 3.40424 4.94708 6.52466L4.94708 9.11827C4.94708 9.56459 4.58875 9.92794 4.14838 9.92794L1.44604 9.92794L1.44604 13.2914L4.14838 13.2914C4.58875 13.2914 4.94708 13.6545 4.94708 14.101L4.94708 23.5344ZM12.8027 1.47057L12.8029 1.47057L12.8027 1.47057Z" fill="#FFFFFF" fill-opacity="1.000000" fill-rule="nonzero"/>
</svg>
