<svg width="25.223450" height="25.223419" viewBox="0 0 25.2234 25.2234" fill="none" xmlns="http://www.w3.org/2000/svg" xmlns:xlink="http://www.w3.org/1999/xlink">
	<desc>
			Created with Pixso.
	</desc>
	<defs/>
	<path d="M18.3957 0L6.82776 0C3.06287 0 0 3.06287 0 6.82775L0 18.3959C0 22.1606 3.06287 25.2234 6.82776 25.2234L18.3959 25.2234C22.1606 25.2234 25.2234 22.1606 25.2234 18.3959L25.2234 6.82775C25.2234 3.06287 22.1606 0 18.3957 0L18.3957 0ZM23.7447 18.3959C23.7447 21.3452 21.3452 23.7447 18.3957 23.7447L6.82776 23.7447C3.87823 23.7447 1.4787 21.3452 1.4787 18.3959L1.4787 6.82775C1.4787 3.87823 3.87823 1.47871 6.82776 1.47871L18.3959 1.47871C21.3452 1.47871 23.7447 3.87823 23.7447 6.82775L23.7447 18.3959Z" fill="#FFFFFF" fill-opacity="1.000000" fill-rule="nonzero"/>
	<path d="M12.6117 5.7149C8.80872 5.7149 5.71484 8.80875 5.71484 12.6117C5.71484 16.4147 8.80872 19.5086 12.6117 19.5086C16.4147 19.5086 19.5085 16.4147 19.5085 12.6117C19.5085 8.80875 16.4147 5.7149 12.6117 5.7149ZM12.6117 18.0299C9.62427 18.0299 7.19354 15.5994 7.19354 12.6117C7.19354 9.62431 9.62427 7.19361 12.6117 7.19361C15.5993 7.19361 18.0298 9.62431 18.0298 12.6117C18.0298 15.5994 15.5993 18.0299 12.6117 18.0299Z" fill="#FFFFFF" fill-opacity="1.000000" fill-rule="nonzero"/>
	<path d="M19.6734 3.2655C18.5496 3.2655 17.6355 4.17979 17.6355 5.30344C17.6355 6.42728 18.5496 7.34157 19.6734 7.34157C20.7973 7.34157 21.7115 6.42728 21.7115 5.30344C21.7115 4.17959 20.7973 3.2655 19.6734 3.2655ZM19.6734 5.86266C19.3652 5.86266 19.1142 5.61172 19.1142 5.30344C19.1142 4.99496 19.3652 4.74421 19.6734 4.74421C19.9819 4.74421 20.2328 4.99496 20.2328 5.30344C20.2328 5.61172 19.9819 5.86266 19.6734 5.86266Z" fill="#FFFFFF" fill-opacity="1.000000" fill-rule="nonzero"/>
</svg>
