<svg width="29.736008" height="32.421631" viewBox="0 0 29.736 32.4216" fill="none" xmlns="http://www.w3.org/2000/svg" xmlns:xlink="http://www.w3.org/1999/xlink">
	<desc>
			Created with Pixso.
	</desc>
	<defs/>
	<path id="02" d="M27.396 30.6216C28.956 29.3976 29.736 27.5856 29.736 25.1856C29.736 22.7856 28.968 20.9856 27.432 19.7856Q25.092 17.9856 21.132 17.9856L8.568 17.9856Q4.572 17.9856 2.304 19.7856Q1.7795 20.1872 1.3744 20.6858Q-1.90735e-06 22.3774 -1.90735e-06 25.1856Q-1.90735e-06 28.0498 1.40175 29.775Q1.79712 30.2616 2.304 30.6576Q4.572 32.4216 8.568 32.4216L21.132 32.4216Q25.056 32.4216 27.396 30.6216ZM15.12 7.01999L26.676 14.436L29.412 14.436L29.412 0.683987L26.172 0.683987L26.172 9.89999L15.948 3.20399C14.7 2.38799 13.74 1.78799 13.068 1.40398C12.396 1.01999 11.604 0.695984 10.692 0.431988C9.756 0.143986 8.7 -1.52588e-05 7.524 -1.52588e-05C5.124 -1.52588e-05 3.276 0.587986 1.98 1.76398C0.659996 2.93999 -1.90735e-06 4.67999 -1.90735e-06 6.98399Q-9.53674e-07 10.1683 1.58849 11.8682Q1.8677 12.167 2.196 12.42Q4.39199 14.112 8.496 14.112L9.504 14.112L9.504 10.26L8.532 10.26Q4.7415 10.26 3.62958 8.53419Q3.168 7.81779 3.168 6.80399C3.168 5.77199 3.54 5.02799 4.284 4.57199Q5.4 3.88799 7.488 3.88799C8.736 3.88799 9.804 4.07999 10.692 4.46399C11.58 4.84799 12.696 5.45999 14.04 6.29999Q14.256 6.47999 15.12 7.01999ZM21.168 21.8736C24.768 21.8736 26.568 22.9776 26.568 25.1856Q26.568 26.1153 26.1517 26.7868Q25.0686 28.5336 21.168 28.5336L8.532 28.5336Q6.048 28.5336 4.608 27.8136Q4.06396 27.5483 3.72044 27.1215Q3.132 26.3904 3.132 25.1856Q3.132 23.9737 3.7275 23.2556Q4.06952 22.8432 4.608 22.5936Q6.048 21.8736 8.532 21.8736L21.168 21.8736Z" fill="#C4C4C4" fill-opacity="1.000000" fill-rule="evenodd"/>
</svg>
