<svg width="29.736008" height="26.517639" viewBox="0 0 29.736 26.5176" fill="none" xmlns="http://www.w3.org/2000/svg" xmlns:xlink="http://www.w3.org/1999/xlink">
	<desc>
			Created with Pixso.
	</desc>
	<defs/>
	<path id="01" d="M27.396 24.7177C28.956 23.4937 29.736 21.6817 29.736 19.2817C29.736 16.8817 28.968 15.0817 27.432 13.8817Q25.092 12.0817 21.132 12.0817L8.568 12.0817Q4.572 12.0817 2.304 13.8817Q1.7795 14.2832 1.3744 14.7818Q-1.90735e-06 16.4734 -1.90735e-06 19.2817Q-1.90735e-06 22.1458 1.40175 23.871Q1.79712 24.3577 2.304 24.7537Q4.572 26.5177 8.568 26.5177L21.132 26.5177Q25.056 26.5177 27.396 24.7177ZM5.796 6.04799C5.532 4.632 5.364 3.9 5.292 3.852L29.412 3.852L29.412 -5.72205e-06L0.251997 -5.72205e-06L0.251997 2.91599C1.668 3.99599 2.724 6 3.42 8.928L6.336 8.928C6.24 8.4 6.06 7.43999 5.796 6.04799ZM21.168 15.9697C24.768 15.9697 26.568 17.0737 26.568 19.2817Q26.568 20.2113 26.1517 20.8828Q25.0686 22.6297 21.168 22.6297L8.532 22.6297Q6.048 22.6297 4.608 21.9097Q4.06396 21.6443 3.72044 21.2175Q3.132 20.4864 3.132 19.2817Q3.132 18.0697 3.7275 17.3516Q4.06952 16.9392 4.608 16.6897Q6.048 15.9697 8.532 15.9697L21.168 15.9697Z" fill="#5A0D67" fill-opacity="1.000000" fill-rule="evenodd"/>
</svg>
