<svg width="25.000000" height="19.000000" viewBox="0 0 25 19" fill="none" xmlns="http://www.w3.org/2000/svg" xmlns:xlink="http://www.w3.org/1999/xlink">
	<desc>
			Created with Pixso.
	</desc>
	<defs/>
	<path d="M24.7936 0.329933C24.5487 0.0331955 24.1426 -0.0768509 23.7816 0.0551987L0.849182 8.29881C0.391052 8.46445 0.069458 8.8661 0.00976562 9.34707C-0.0493164 9.82576 0.16272 10.2902 0.560608 10.5576L3.83856 12.7835C4.15619 12.9992 4.56451 13.0223 4.9046 12.8438L12.0152 9.11389L6.47339 13.2301C6.21326 13.4234 6.0578 13.7318 6.0578 14.0547L6.0578 17.8675C6.0578 18.2608 6.27466 18.6211 6.62372 18.8082C6.97333 18.9953 7.39557 18.9767 7.72766 18.7589L10.2181 17.1156L12.6671 18.7767C12.8817 18.923 13.1373 19 13.3951 19C13.4823 19 13.5699 18.9911 13.6561 18.9733C13.9999 18.9019 14.3042 18.6906 14.4909 18.3934L24.8663 1.37497C25.0683 1.0473 25.0393 0.627998 24.7936 0.329933ZM13.3404 17.4689L10.8042 15.7486C10.6278 15.6287 10.4244 15.5687 10.2213 15.5687C10.0226 15.5687 9.82367 15.6262 9.64948 15.7412L7.52338 17.1441L7.52338 14.2698L17.309 7.00143C17.746 6.6768 17.8561 6.08598 17.5648 5.62721C17.2734 5.16844 16.6899 5.01344 16.2075 5.26653L4.45068 11.4337L1.67816 9.55103L22.7957 1.95991L13.3404 17.4689Z" fill="#FFFFFF" fill-opacity="1.000000" fill-rule="nonzero"/>
</svg>
