<svg width="25.223450" height="25.223473" viewBox="0 0 25.2234 25.2235" fill="none" xmlns="http://www.w3.org/2000/svg" xmlns:xlink="http://www.w3.org/1999/xlink">
	<desc>
			Created with Pixso.
	</desc>
	<defs/>
	<path d="M21.6408 3.58265C19.3304 1.27222 16.2592 0 12.9916 0C12.9914 0 12.9907 0 12.9905 0C11.3743 0.000190735 9.79944 0.313103 8.30975 0.930252C6.81989 1.54741 5.48511 2.43975 4.34222 3.58265C2.03198 5.89289 0.759766 8.96461 0.759766 12.2319C0.759766 14.1803 1.22986 16.1166 2.12067 17.8419L0.0646362 23.7155C-0.0802612 24.1298 0.0223389 24.5801 0.332947 24.8905C0.550171 25.108 0.836182 25.2235 1.13019 25.2235C1.25623 25.2235 1.38367 25.2023 1.50793 25.1588L7.38159 23.103C9.10681 23.9938 11.0432 24.4639 12.9916 24.4639C16.2589 24.4639 19.3304 23.1915 21.6408 20.8813C23.951 18.571 25.2234 15.4993 25.2234 12.2321C25.2234 8.96461 23.9512 5.89289 21.6408 3.58265ZM20.5947 19.8352C18.5639 21.8662 15.8636 22.9844 12.9916 22.9844C11.2346 22.9844 9.4892 22.5499 7.94391 21.7274C7.6637 21.5785 7.33252 21.5529 7.03522 21.657L1.69885 23.5246L3.56671 18.1883C3.67078 17.8905 3.64502 17.5594 3.49603 17.2794C2.67377 15.7345 2.23901 13.989 2.23901 12.2319C2.23901 9.35989 3.35748 6.65958 5.38831 4.62875C7.41895 2.59813 10.1189 1.47967 12.9907 1.47929L12.9916 1.47929C15.8638 1.47929 18.5639 2.59775 20.5947 4.62875C22.6257 6.65958 23.7442 9.3597 23.7442 12.2319C23.7442 15.104 22.6257 17.8043 20.5947 19.8352Z" fill="#FFFFFF" fill-opacity="1.000000" fill-rule="nonzero"/>
	<path d="M17.5375 13.3245C16.9747 12.7618 16.0591 12.7618 15.4965 13.3245L14.881 13.94C13.3528 13.1073 12.1162 11.8707 11.2833 10.3425L11.8987 9.72707C12.4617 9.16438 12.4617 8.24875 11.8987 7.68606L10.2403 6.02761C9.67761 5.46492 8.76202 5.46492 8.19928 6.02761L6.87262 7.35429C6.11267 8.11423 6.07477 9.42071 6.76581 11.0332C7.36584 12.4332 8.46393 13.9719 9.85773 15.3658C11.2516 16.7596 12.7903 17.8577 14.1904 18.4577C14.9564 18.786 15.6533 18.9498 16.2554 18.9498C16.9207 18.9498 17.4703 18.7498 17.8692 18.3509L19.1959 17.024L19.1959 17.0242C19.4686 16.7515 19.6187 16.3892 19.6187 16.0037C19.6187 15.618 19.4686 15.2557 19.1959 14.9832L17.5375 13.3245ZM16.8231 17.3048C16.6063 17.5217 15.9392 17.5977 14.7733 17.0981C13.542 16.5704 12.1678 15.5836 10.9039 14.3196C9.63989 13.0557 8.65326 11.6817 8.12561 10.4505C7.62585 9.28446 7.70184 8.61727 7.9187 8.4004L9.22003 7.09911L10.8273 8.70657L10.0569 9.4771C9.70862 9.82541 9.62451 10.3537 9.84796 10.7916C10.8607 12.7776 12.4459 14.3628 14.4318 15.3756C14.8701 15.599 15.3983 15.5151 15.7466 15.1666L16.517 14.3962L18.1244 16.0037L16.8231 17.3048Z" fill="#FFFFFF" fill-opacity="1.000000" fill-rule="nonzero"/>
</svg>
